HIERARCHY
ROOT Hips
{
    OFFSET   0.000000   0.000000   0.000000
    CHANNELS 6 Xposition Yposition Zposition Zrotation Xrotation Yrotation
    JOINT Chest
    {
        OFFSET   0.000000   8.007230   0.000000
        CHANNELS 3 Zrotation Xrotation Yrotation
        JOINT Chest2
        {
            OFFSET   0.000000  22.077100   0.000000
            CHANNELS 3 Zrotation Xrotation Yrotation
            JOINT Neck
            {
                OFFSET   0.000000  23.254800  -0.000021
                CHANNELS 3 Zrotation Xrotation Yrotation
                JOINT Head
                {
                    OFFSET   0.000000  14.370000   1.956610
                    CHANNELS 3 Zrotation Xrotation Yrotation
                    End Site
                    {
                        OFFSET   0.000000  19.566000   0.000000
                    }
                }
            }
            JOINT LeftCollar
            {
                OFFSET   3.911900  19.017000  -0.467063
                CHANNELS 3 Zrotation Xrotation Yrotation
                JOINT LeftShoulder
                {
                    OFFSET  10.383700   0.000000   0.000000
                    CHANNELS 3 Zrotation Xrotation Yrotation
                    JOINT LeftElbow
                    {
                        OFFSET  26.662100   0.001529   0.000325
                        CHANNELS 3 Zrotation Xrotation Yrotation
                        JOINT LeftWrist
                        {
                            OFFSET  28.869000  -0.000011  -0.000096
                            CHANNELS 3 Zrotation Xrotation Yrotation
                            JOINT LeftFinger0
                            {
                                OFFSET   2.044650  -2.323460   3.252850
                                CHANNELS 3 Zrotation Xrotation Yrotation
                                JOINT LeftFinger01
                                {
                                    OFFSET   3.088130   0.000000   0.000000
                                    CHANNELS 3 Zrotation Xrotation Yrotation
                                    JOINT LeftFinger02
                                    {
                                        OFFSET   2.639460   0.000000   0.000000
                                        CHANNELS 3 Zrotation Xrotation Yrotation
                                        End Site
                                        {
                                            OFFSET   2.582190   0.000000   0.000000
                                        }
                                    }
                                }
                            }
                            JOINT LeftFinger1
                            {
                                OFFSET   8.364480   0.000000   3.252850
                                CHANNELS 3 Zrotation Xrotation Yrotation
                                JOINT LeftFinger11
                                {
                                    OFFSET   4.646930   0.000000   0.000000
                                    CHANNELS 3 Zrotation Xrotation Yrotation
                                    JOINT LeftFinger12
                                    {
                                        OFFSET   2.323460   0.000000   0.000000
                                        CHANNELS 3 Zrotation Xrotation Yrotation
                                        End Site
                                        {
                                            OFFSET   2.273050   0.000000   0.000000
                                        }
                                    }
                                }
                            }
                            JOINT LeftFinger2
                            {
                                OFFSET   8.364480   0.000016   1.078090
                                CHANNELS 3 Zrotation Xrotation Yrotation
                                JOINT LeftFinger21
                                {
                                    OFFSET   5.111620   0.000000   0.000000
                                    CHANNELS 3 Zrotation Xrotation Yrotation
                                    JOINT LeftFinger22
                                    {
                                        OFFSET   2.788160   0.000017   0.000000
                                        CHANNELS 3 Zrotation Xrotation Yrotation
                                        End Site
                                        {
                                            OFFSET   2.727660   0.000000   0.000000
                                        }
                                    }
                                }
                            }
                            JOINT LeftFinger3
                            {
                                OFFSET   7.899780   0.000015  -1.078090
                                CHANNELS 3 Zrotation Xrotation Yrotation
                                JOINT LeftFinger31
                                {
                                    OFFSET   4.646920   0.000000   0.000000
                                    CHANNELS 3 Zrotation Xrotation Yrotation
                                    JOINT LeftFinger32
                                    {
                                        OFFSET   2.323470   0.000000   0.000000
                                        CHANNELS 3 Zrotation Xrotation Yrotation
                                        End Site
                                        {
                                            OFFSET   2.273050   0.000000   0.000000
                                        }
                                    }
                                }
                            }
                            JOINT LeftFinger4
                            {
                                OFFSET   7.435090   0.000000  -3.252850
                                CHANNELS 3 Zrotation Xrotation Yrotation
                                JOINT LeftFinger41
                                {
                                    OFFSET   3.717550   0.000000   0.000000
                                    CHANNELS 3 Zrotation Xrotation Yrotation
                                    JOINT LeftFinger42
                                    {
                                        OFFSET   1.858760   0.000000   0.000000
                                        CHANNELS 3 Zrotation Xrotation Yrotation
                                        End Site
                                        {
                                            OFFSET   1.818440   0.000000   0.000000
                                        }
                                    }
                                }
                            }
                        }
                    }
                }
            }
            JOINT RightCollar
            {
                OFFSET  -3.911900  19.017000  -0.467062
                CHANNELS 3 Zrotation Xrotation Yrotation
                JOINT RightShoulder
                {
                    OFFSET -10.383700   0.000015   0.000000
                    CHANNELS 3 Zrotation Xrotation Yrotation
                    JOINT RightElbow
                    {
                        OFFSET -26.662100   0.001341   0.000385
                        CHANNELS 3 Zrotation Xrotation Yrotation
                        JOINT RightWrist
                        {
                            OFFSET -28.869000   0.000025  -0.000080
                            CHANNELS 3 Zrotation Xrotation Yrotation
                            JOINT RightFinger0
                            {
                                OFFSET  -2.044650  -2.323490   3.252850
                                CHANNELS 3 Zrotation Xrotation Yrotation
                                JOINT RightFinger01
                                {
                                    OFFSET  -3.088130   0.000000   0.000000
                                    CHANNELS 3 Zrotation Xrotation Yrotation
                                    JOINT RightFinger02
                                    {
                                        OFFSET  -2.639460   0.000000   0.000000
                                        CHANNELS 3 Zrotation Xrotation Yrotation
                                        End Site
                                        {
                                            OFFSET  -2.582190   0.000000   0.000000
                                        }
                                    }
                                }
                            }
                            JOINT RightFinger1
                            {
                                OFFSET  -8.364480   0.000000   3.252850
                                CHANNELS 3 Zrotation Xrotation Yrotation
                                JOINT RightFinger11
                                {
                                    OFFSET  -4.646930   0.000000   0.000000
                                    CHANNELS 3 Zrotation Xrotation Yrotation
                                    JOINT RightFinger12
                                    {
                                        OFFSET  -2.323470   0.000000   0.000000
                                        CHANNELS 3 Zrotation Xrotation Yrotation
                                        End Site
                                        {
                                            OFFSET  -2.273050   0.000000   0.000000
                                        }
                                    }
                                }
                            }
                            JOINT RightFinger2
                            {
                                OFFSET  -8.364480   0.000000   1.078090
                                CHANNELS 3 Zrotation Xrotation Yrotation
                                JOINT RightFinger21
                                {
                                    OFFSET  -5.111610   0.000000   0.000000
                                    CHANNELS 3 Zrotation Xrotation Yrotation
                                    JOINT RightFinger22
                                    {
                                        OFFSET  -2.788160   0.000000   0.000000
                                        CHANNELS 3 Zrotation Xrotation Yrotation
                                        End Site
                                        {
                                            OFFSET  -2.727660   0.000000   0.000000
                                        }
                                    }
                                }
                            }
                            JOINT RightFinger3
                            {
                                OFFSET  -7.899780   0.000000  -1.078090
                                CHANNELS 3 Zrotation Xrotation Yrotation
                                JOINT RightFinger31
                                {
                                    OFFSET  -4.646920   0.000000   0.000000
                                    CHANNELS 3 Zrotation Xrotation Yrotation
                                    JOINT RightFinger32
                                    {
                                        OFFSET  -2.323470   0.000000   0.000000
                                        CHANNELS 3 Zrotation Xrotation Yrotation
                                        End Site
                                        {
                                            OFFSET  -2.273050   0.000000   0.000000
                                        }
                                    }
                                }
                            }
                            JOINT RightFinger4
                            {
                                OFFSET  -7.435090   0.000000  -3.252850
                                CHANNELS 3 Zrotation Xrotation Yrotation
                                JOINT RightFinger41
                                {
                                    OFFSET  -3.717550   0.000000   0.000000
                                    CHANNELS 3 Zrotation Xrotation Yrotation
                                    JOINT RightFinger42
                                    {
                                        OFFSET  -1.858770   0.000000   0.000000
                                        CHANNELS 3 Zrotation Xrotation Yrotation
                                        End Site
                                        {
                                            OFFSET  -1.818440   0.000000   0.000000
                                        }
                                    }
                                }
                            }
                        }
                    }
                }
            }
        }
    }
    JOINT LeftHip
    {
        OFFSET   9.783010   0.000000   0.000000
        CHANNELS 3 Zrotation Xrotation Yrotation
        JOINT LeftKnee
        {
            OFFSET   0.000070 -41.789100   0.000028
            CHANNELS 3 Zrotation Xrotation Yrotation
            JOINT LeftAnkle
            {
                OFFSET   0.000087 -41.133200  -0.000100
                CHANNELS 3 Zrotation Xrotation Yrotation
                JOINT LeftToe
                {
                    OFFSET   0.000000  -6.358960  14.674500
                    CHANNELS 3 Zrotation Xrotation Yrotation
                    End Site
                    {
                        OFFSET   0.000000   0.000000   3.913200
                    }
                }
            }
        }
    }
    JOINT RightHip
    {
        OFFSET  -9.783020   0.000000   0.000000
        CHANNELS 3 Zrotation Xrotation Yrotation
        JOINT RightKnee
        {
            OFFSET   0.000044 -41.789100  -0.000870
            CHANNELS 3 Zrotation Xrotation Yrotation
            JOINT RightAnkle
            {
                OFFSET  -0.000090 -41.133200  -0.000245
                CHANNELS 3 Zrotation Xrotation Yrotation
                JOINT RightToe
                {
                    OFFSET   0.000000  -6.358960  14.674500
                    CHANNELS 3 Zrotation Xrotation Yrotation
                    End Site
                    {
                        OFFSET   0.000000   0.000000   3.913200
                    }
                }
            }
        }
    }
}
MOTION
Frames: 5
Frame Time:   0.016667
  1.967950  89.365100   0.867365  -1.191740  -0.006193   1.409880   0.829104   0.882932  -0.783086   1.670500   1.754360  -1.579150  -0.371927  -0.557588   0.003105  -0.605227  -1.130530   0.215951  -3.603690   1.843200   9.266520 -80.345000   2.730880   2.425830   0.779536   8.897870 -15.116700   9.199510  -4.711740  -3.362910  41.966000  33.365800 -51.768600 -29.100900  -0.002298   0.006278  -9.550440   0.013956   0.002848 -32.473300  -0.617356   0.969999 -26.573200  -0.007880   0.000642 -18.607400  -0.005630   0.001573 -26.687600  -4.336120   8.563760 -27.069000   0.001890   0.005419 -18.027900  -0.001381  -0.010784 -28.336100  -4.579430   8.423400 -38.637200  -0.000524   0.000849 -25.732400   0.002002   0.000156 -35.216300  -5.562250   7.822180 -53.394900   0.002691  -0.002355 -35.561000   0.001525   0.000948   8.649430   5.142260   5.055040  70.905800  -4.689710  -0.416038   4.017690  -4.950710  11.803500 -14.558700   0.374702   1.502230 -44.531100  39.335800  77.914600  26.499400  -0.000274   0.000235   8.242360   0.006099  -0.009560  27.282200   2.042980   3.954120  22.379500  -0.000432   0.000439  15.665600   0.000000   0.001781  27.328200   0.738271   1.428820  28.400200   0.000622  -0.003394  18.914500   0.000000  -0.002555  27.106500  -2.140870  -4.174110  27.763000   0.000315  -0.000454  18.490200  -0.000520  -0.008391  28.387200  -2.233710  -4.125230  42.701600  -0.001348  -0.003625  28.439200  -0.001808  -0.000233   3.544040   3.336260  -0.904869   0.035105   0.086413  14.060000  -3.291650  -3.236350  -0.850088  -0.000000   0.000000  -0.000000  -2.443060   3.525080  -5.234980   1.095270   0.318958 -11.579700   0.842714  -2.782760  -0.920600  -0.000000   0.000000   0.000000
  1.972510  89.365000   0.859613  -1.191370  -0.020805   1.418370   0.829159   0.893251  -0.777883   1.670700   1.775070  -1.568900  -0.372146  -0.541083   0.003152  -0.605439  -1.096980   0.215909  -3.603300   1.853790   9.266540 -80.346500   2.732110   2.412230   0.776101   8.891930 -15.151900   9.192720  -4.711310  -3.358720  41.978400  33.394900 -51.793000 -29.108700  -0.002302   0.006286  -9.554140   0.014097   0.002853 -32.474800  -0.625663   0.982968 -26.574600  -0.007889   0.000690 -18.607300  -0.005686   0.001573 -26.687000  -4.336150   8.564020 -27.059400   0.002029   0.005468 -18.021500  -0.001254  -0.010880 -28.336100  -4.579510   8.423410 -38.628200  -0.000524   0.000849 -25.726500   0.002146   0.000194 -35.210200  -5.562440   7.822200 -53.385600   0.002903  -0.002355 -35.554800   0.001640   0.001030   8.649040   5.150340   5.038840  70.900100  -4.685130  -0.410737   4.019490  -4.963840  11.792500 -14.588700   0.366877   1.484160 -44.538400  39.345500  77.923900  26.501800  -0.000275   0.000203   8.246770   0.006089  -0.009561  27.290800   2.054350   3.974070  22.387200  -0.000432   0.000434  15.671100   0.000000   0.001783  27.328100   0.744039   1.439820  28.412200   0.000622  -0.003383  18.922500   0.000000  -0.002548  27.110500  -2.139480  -4.170510  27.779800   0.000310  -0.000451  18.501400  -0.000525  -0.008384  28.403400  -2.233320  -4.121090  42.725700  -0.001350  -0.003618  28.455300  -0.001813  -0.000226   3.544140   3.348870  -0.904867   0.035344   0.075415  14.055600  -3.290400  -3.225790  -0.854110   0.000000   0.000000  -0.000000  -2.442740   3.530440  -5.232600   1.096940   0.324531 -11.590900   0.842515  -2.781750  -0.920619  -0.000000   0.000000   0.000000
  1.979060  89.364800   0.846148  -1.190700  -0.046414   1.434440   0.829246   0.912623  -0.768860   1.670990   1.813940  -1.551150  -0.372365  -0.516887   0.003200  -0.605710  -1.047900   0.215788  -3.603060   1.865380   9.266480 -80.347900   2.740550   2.389670   0.770636   8.879050 -15.207100   9.183740  -4.708230  -3.349260  41.996800  33.437800 -51.829000 -29.120800  -0.002310   0.006299  -9.560370   0.014394   0.002858 -32.478000  -0.639086   1.003890 -26.577500  -0.007903   0.000792 -18.607100  -0.005798   0.001575 -26.686500  -4.336200   8.564290 -27.049800   0.002223   0.005571 -18.015200  -0.001042  -0.011084 -28.336100  -4.579660   8.423430 -38.615500  -0.000524   0.000848 -25.717900   0.002348   0.000256 -35.198700  -5.562630   7.822230 -53.368300   0.003200  -0.002358 -35.543300   0.001801   0.001144   8.647610   5.161290   5.015650  70.887000  -4.667800  -0.403557   4.023290  -4.988910  11.775500 -14.626400   0.350776   1.466090 -44.549300  39.369500  77.948400  26.514700  -0.000280   0.000172   8.257370   0.006069  -0.009565  27.305100   2.065710   3.994020  22.399500  -0.000433   0.000420  15.679700   0.000000   0.001789  27.328100   0.749807   1.450810  28.424300   0.000623  -0.003355  18.930500   0.000000  -0.002529  27.116600  -2.138090  -4.166910  27.805200   0.000296  -0.000446  18.518300  -0.000541  -0.008366  28.426800  -2.232920  -4.116950  42.760600  -0.001358  -0.003599  28.478500  -0.001827  -0.000206   3.544360   3.373340  -0.904869   0.036378   0.053687  14.046500  -3.288370  -3.206000  -0.860952  -0.000000   0.000000   0.000000  -2.441480   3.548070  -5.227290   1.101470   0.330095 -11.609500   0.841128  -2.774700  -0.920751  -0.000000   0.000000   0.000000
  1.982220  89.365800   0.834321  -1.190060  -0.070127   1.451050   0.829239   0.933349  -0.760822   1.671110   1.855510  -1.535380  -0.372311  -0.506239   0.003159  -0.605736  -1.026630   0.215513  -3.608810   1.866250   9.266220 -80.340800   2.781820   2.372070   0.766224   8.861830 -15.246100   9.182420  -4.700720  -3.335800  42.009600  33.462200 -51.849500 -29.129100  -0.002326   0.006312  -9.566800   0.014803   0.002857 -32.482900  -0.651103   1.022570 -26.581700  -0.007919   0.000927 -18.607600  -0.005943   0.001579 -26.689800  -4.336300   8.562580 -27.060400   0.002306   0.005713 -18.022200  -0.000830  -0.011363 -28.336000  -4.579880   8.423440 -38.609600  -0.000524   0.000849 -25.712800   0.002435   0.000319 -35.185600  -5.561330   7.822220 -53.348700   0.003327  -0.002362 -35.530300   0.001871   0.001193   8.643790   5.164700   5.004200  70.868400  -4.632140  -0.401349   4.028560  -5.017760  11.765400 -14.635000   0.325496   1.466130 -44.553600  39.409700  77.992400  26.553200  -0.000297   0.000214   8.277050   0.006047  -0.009583  27.318000   2.064900   3.990740  22.409900  -0.000436   0.000399  15.686900   0.000000   0.001795  27.327100   0.745095   1.441730  28.423600   0.000623  -0.003313  18.930100   0.000000  -0.002497  27.120000  -2.145350  -4.180510  27.823100   0.000275  -0.000437  18.530200  -0.000567  -0.008340  28.438900  -2.240900  -4.130160  42.779400  -0.001373  -0.003568  28.491100  -0.001849  -0.000178   3.544690   3.403330  -0.904891   0.039319   0.021765  14.036100  -3.286440  -3.183800  -0.866740   0.000000   0.000000   0.000000  -2.437920   3.590990  -5.219280   1.104660   0.287278 -11.625300   0.831943  -2.745690  -0.928212   0.000000   0.000000  -0.000000
  1.983950  89.367500   0.821664  -1.189390  -0.094176   1.470570   0.829181   0.955355  -0.752532   1.671190   1.899650  -1.519130  -0.371928  -0.496068   0.003106  -0.605402  -1.006300   0.215317  -3.617330   1.866710   9.265940 -80.328800   2.846610   2.354280   0.763313   8.842440 -15.276900   9.182060  -4.688890  -3.320700  42.013500  33.475800 -51.860900 -29.135400  -0.002336   0.006320  -9.570700   0.015213   0.002853 -32.487600  -0.658281   1.033650 -26.585600  -0.007928   0.001062 -18.608600  -0.006073   0.001584 -26.696600  -4.336430   8.559060 -27.084300   0.002333   0.005854 -18.038100  -0.000703  -0.011641 -28.336000  -4.580090   8.423450 -38.607500  -0.000524   0.000849 -25.710500   0.002464   0.000357 -35.174100  -5.558800   7.822190 -53.331400   0.003370  -0.002369 -35.518700   0.001894   0.001209   8.641070   5.165240   4.999150  70.846200  -4.587760  -0.401007   4.033670  -5.046220  11.755400 -14.635900   0.308492   1.466450 -44.559500  39.450000  78.036400  26.583600  -0.000319   0.000257   8.291790   0.006018  -0.009610  27.325200   2.064080   3.987470  22.415800  -0.000441   0.000372  15.691000   0.000000   0.001803  27.324100   0.740384   1.432640  28.418900   0.000623  -0.003259  18.927000   0.000000  -0.002455  27.121400  -2.152600  -4.194110  27.832300   0.000248  -0.000427  18.536300  -0.000600  -0.008305  28.443700  -2.248880  -4.143360  42.787500  -0.001391  -0.003529  28.496500  -0.001879  -0.000136   3.544950   3.431140  -0.904910   0.041460   0.000572  14.022100  -3.285340  -3.162530  -0.872652   0.000000   0.000000   0.000000  -2.435320   3.623220  -5.211570   1.105010   0.244467 -11.638700   0.823565  -2.722720  -0.943750   0.000000   0.000000  -0.000000
